<?xml version="1.0" encoding="UTF-8" standalone="no"?>
<!DOCTYPE svg PUBLIC "-//W3C//DTD SVG 1.1//EN" "http://www.w3.org/Graphics/SVG/1.1/DTD/svg11.dtd">
<svg width="100%" height="100%" viewBox="0 0 771 151" version="1.1" xmlns="http://www.w3.org/2000/svg" xmlns:xlink="http://www.w3.org/1999/xlink" xml:space="preserve" xmlns:serif="http://www.serif.com/" style="fill-rule:evenodd;clip-rule:evenodd;stroke-linejoin:round;stroke-miterlimit:2;">
    <g transform="matrix(1,0,0,1,-1442.52,-1480.46)">
        <g transform="matrix(1.23393,0,0,1.483,479.648,77.1721)">
            <path d="M780.33,1046.23L780.33,1042.64C782.576,1042.05 784.187,1041.49 785.164,1040.95C786.14,1040.41 786.897,1039.73 787.434,1038.9C787.972,1038.07 788.362,1036.88 788.606,1035.31C788.85,1033.75 788.973,1031.28 788.973,1027.91L788.973,964.561C788.973,961.143 788.85,958.665 788.606,957.127C788.362,955.589 787.959,954.404 787.398,953.574C786.836,952.744 786.092,952.073 785.164,951.56C784.236,951.048 782.625,950.474 780.33,949.839L780.33,946.25L812.41,946.25C821.639,946.25 829.195,947.263 835.078,949.29C840.962,951.316 845.931,954.307 849.983,958.262C854.036,962.217 857.063,967.136 859.065,973.02C861.067,978.904 862.068,985.923 862.068,994.077C862.068,1002.33 861.128,1009.59 859.248,1015.87C857.369,1022.14 854.622,1027.4 851.009,1031.65C847.884,1035.36 844.051,1038.41 839.51,1040.81C835.75,1042.76 831.404,1044.15 826.473,1044.98C821.541,1045.81 814.998,1046.23 806.844,1046.23L780.33,1046.23ZM802.669,1039.41C804.622,1039.61 807.503,1039.71 811.311,1039.71C815.413,1039.71 819.075,1039.37 822.298,1038.68C825.52,1038 828.45,1036.92 831.087,1035.46C833.723,1033.99 836.092,1031.96 838.191,1029.34C840.291,1026.73 842,1023.73 843.318,1020.34C844.637,1016.94 845.601,1013.17 846.211,1009.02C846.822,1004.87 847.127,1000.33 847.127,995.396C847.127,985.484 845.699,977.341 842.842,970.969C839.986,964.597 835.957,959.946 830.757,957.017C825.557,954.087 819.344,952.622 812.117,952.622C808.797,952.622 805.647,952.72 802.669,952.915L802.669,1039.41Z" style="fill:rgb(150,2,2);fill-rule:nonzero;"/>
            <path d="M936.409,1033.78C933.284,1037.05 930.415,1039.61 927.803,1041.46C925.191,1043.32 922.322,1044.77 919.197,1045.82C916.072,1046.87 912.63,1047.4 908.87,1047.4C898.811,1047.4 891.219,1044.38 886.092,1038.35C880.965,1032.32 878.401,1023.42 878.401,1011.65C878.401,1004.38 879.707,997.959 882.32,992.393C884.932,986.826 888.655,982.529 893.489,979.502C898.323,976.475 903.89,974.961 910.188,974.961C915.12,974.961 919.319,975.742 922.786,977.305C926.253,978.867 929.024,981.004 931.099,983.714C933.174,986.424 934.786,989.841 935.933,993.967C937.08,998.093 937.727,1003.48 937.874,1010.12L891.731,1010.12L891.731,1011.44C891.731,1017.2 892.378,1022.04 893.672,1025.97C894.966,1029.9 897.09,1032.98 900.044,1035.2C902.998,1037.42 906.844,1038.54 911.58,1038.54C915.584,1038.54 919.185,1037.79 922.383,1036.3C925.581,1034.81 928.767,1032.38 931.941,1029.01L936.409,1033.78ZM924.104,1004.04C923.811,998.765 923.152,994.456 922.127,991.111C921.101,987.766 919.563,985.203 917.513,983.421C915.462,981.638 912.776,980.747 909.456,980.747C904.427,980.747 900.411,982.761 897.408,986.79C894.405,990.818 892.635,996.568 892.098,1004.04L924.104,1004.04Z" style="fill:rgb(150,2,2);fill-rule:nonzero;"/>
            <path d="M973.763,976.206L973.763,979.795C971.516,980.332 969.93,980.845 969.002,981.333C968.074,981.821 967.378,982.456 966.914,983.237C966.451,984.019 966.219,985.069 966.219,986.387C966.219,987.705 966.377,989.085 966.695,990.525C967.012,991.966 967.513,993.638 968.196,995.542L980.94,1032.6L995.882,997.08C996.858,994.736 997.542,992.808 997.932,991.294C998.323,989.78 998.518,988.364 998.518,987.046C998.518,984.995 997.969,983.433 996.87,982.359C995.772,981.284 993.758,980.43 990.828,979.795L990.828,976.206L1018.22,976.206L1018.22,979.795C1016.32,980.186 1014.85,980.784 1013.83,981.59C1012.8,982.395 1011.77,983.665 1010.75,985.398C1009.72,987.132 1008.5,989.561 1007.09,992.686L982.405,1046.96L973.763,1046.96L953.914,992.246C952.547,988.486 951.46,985.911 950.655,984.519C949.849,983.128 948.97,982.09 948.018,981.406C947.066,980.723 945.686,980.186 943.88,979.795L943.88,976.206L973.763,976.206Z" style="fill:rgb(150,2,2);fill-rule:nonzero;"/>
            <path d="M1098.57,1013.49C1077.82,1013.49 1056.04,1013.85 1033.24,1014.59L1033.24,1009.9C1033.24,1008.68 1033.79,1007.31 1034.88,1005.8C1035.98,1004.28 1036.85,1003.5 1037.48,1003.45C1060.63,1003.45 1082.4,1003.09 1102.82,1002.35L1102.82,1007.04C1102.82,1008.26 1102.27,1009.64 1101.17,1011.18C1100.07,1012.72 1099.2,1013.49 1098.57,1013.49Z" style="fill:rgb(43,1,1);fill-rule:nonzero;"/>
            <path d="M1126.91,1046.23L1126.91,1042.64C1129.94,1041.86 1131.97,1040.99 1132.99,1040.04C1134.02,1039.09 1134.69,1037.73 1135.01,1035.97C1135.32,1034.21 1135.48,1031.53 1135.48,1027.91L1135.48,964.561C1135.48,961.192 1135.36,958.738 1135.12,957.2C1134.87,955.662 1134.47,954.466 1133.91,953.611C1133.35,952.757 1132.6,952.073 1131.67,951.56C1130.75,951.048 1129.16,950.474 1126.91,949.839L1126.91,946.25L1166.98,946.25C1174.74,946.25 1180.98,947.08 1185.69,948.74C1190.4,950.401 1193.9,952.854 1196.2,956.101C1198.49,959.348 1199.64,963.535 1199.64,968.662C1199.64,972.91 1198.82,976.597 1197.19,979.722C1195.55,982.847 1193.42,985.435 1190.78,987.486C1188.14,989.536 1184.75,991.441 1180.6,993.198L1180.6,993.858C1187.24,995.86 1192.27,998.948 1195.69,1003.12C1199.1,1007.3 1200.81,1012.27 1200.81,1018.03C1200.81,1024.67 1199.34,1030.09 1196.38,1034.29C1193.43,1038.49 1189.29,1041.53 1183.97,1043.41C1178.64,1045.29 1172.2,1046.23 1164.63,1046.23L1126.91,1046.23ZM1162,991.074C1169.42,991.074 1175.09,989.28 1179.02,985.691C1182.95,982.102 1184.92,976.89 1184.92,970.054C1184.92,966.685 1184.37,963.889 1183.27,961.668C1182.17,959.446 1180.66,957.676 1178.73,956.358C1176.8,955.039 1174.52,954.099 1171.88,953.538C1169.25,952.976 1166.39,952.695 1163.31,952.695C1161.46,952.695 1159.02,952.744 1155.99,952.842C1152.96,952.94 1150.69,953.037 1149.18,953.135L1149.18,991.074L1162,991.074ZM1149.18,1039.27C1152.74,1039.61 1156.72,1039.78 1161.12,1039.78C1167.51,1039.78 1172.48,1038.97 1176.02,1037.36C1179.56,1035.75 1182.12,1033.37 1183.71,1030.22C1185.3,1027.07 1186.09,1023.13 1186.09,1018.39C1186.09,1013.66 1185.23,1009.75 1183.49,1006.68C1181.76,1003.6 1179.09,1001.3 1175.47,999.79C1171.86,998.277 1166.88,997.52 1160.53,997.52L1149.18,997.52L1149.18,1039.27Z" style="fill:rgb(103,103,103);fill-rule:nonzero;"/>
            <path d="M1259.19,1035.75L1258.09,1035.46C1253.84,1039.81 1249.85,1042.88 1246.11,1044.69C1242.38,1046.49 1238.41,1047.4 1234.21,1047.4C1230.5,1047.4 1227.23,1046.68 1224.4,1045.24C1221.57,1043.8 1219.39,1041.77 1217.88,1039.16C1216.37,1036.55 1215.61,1033.53 1215.61,1030.11C1215.61,1022.98 1219.14,1017.48 1226.19,1013.6C1233.25,1009.72 1243.83,1007.46 1257.94,1006.82L1257.94,1002.06C1257.94,996.983 1257.45,992.979 1256.48,990.049C1255.5,987.119 1253.96,984.971 1251.86,983.604C1249.76,982.236 1246.96,981.553 1243.44,981.553C1239.63,981.553 1236.57,982.554 1234.25,984.556C1231.93,986.558 1230.18,989.561 1229.01,993.565L1219.42,993.565L1219.42,984.043C1224.1,981.602 1228.01,979.807 1231.14,978.66C1234.26,977.512 1237.39,976.609 1240.51,975.95C1243.64,975.291 1246.81,974.961 1250.03,974.961C1254.87,974.961 1258.75,975.73 1261.68,977.268C1264.61,978.806 1266.81,981.162 1268.27,984.336C1269.73,987.51 1270.47,992.295 1270.47,998.692L1270.47,1024.18C1270.47,1027.79 1270.49,1030.34 1270.54,1031.83C1270.59,1033.32 1270.74,1034.7 1270.98,1035.97C1271.22,1037.24 1271.59,1038.26 1272.08,1039.01C1272.57,1039.77 1273.29,1040.41 1274.24,1040.95C1275.19,1041.49 1276.74,1042.05 1278.89,1042.64L1278.89,1046.23L1258.82,1046.23L1259.19,1035.75ZM1257.94,1012.83C1248.03,1012.93 1240.61,1014.24 1235.68,1016.78C1230.75,1019.32 1228.28,1023.15 1228.28,1028.28C1228.28,1031.07 1228.84,1033.26 1229.96,1034.87C1231.09,1036.49 1232.5,1037.6 1234.21,1038.21C1235.92,1038.82 1237.95,1039.12 1240.29,1039.12C1243.61,1039.12 1246.63,1038.32 1249.34,1036.7C1252.05,1035.09 1254.16,1033.04 1255.67,1030.55C1257.18,1028.06 1257.94,1025.6 1257.94,1023.15L1257.94,1012.83Z" style="fill:rgb(103,103,103);fill-rule:nonzero;"/>
            <path d="M1309.87,988.364L1310.9,988.584C1313.58,985.313 1316.07,982.737 1318.37,980.857C1320.66,978.977 1323.14,977.525 1325.8,976.499C1328.46,975.474 1331.48,974.961 1334.85,974.961C1337.68,974.961 1340.24,975.108 1342.54,975.401L1342.54,992.246L1334.26,992.246C1333.09,989.61 1331.84,987.693 1330.53,986.497C1329.21,985.3 1327.4,984.702 1325.11,984.702C1323.35,984.702 1321.6,985.215 1319.87,986.24C1318.13,987.266 1316.46,988.755 1314.85,990.708C1313.24,992.661 1312.13,994.492 1311.52,996.201C1310.91,997.91 1310.6,999.937 1310.6,1002.28L1310.6,1027.91C1310.6,1032.36 1310.87,1035.42 1311.41,1037.11C1311.95,1038.79 1312.84,1040.03 1314.08,1040.81C1315.33,1041.59 1317.19,1042.2 1319.68,1042.64L1319.68,1046.23L1290.17,1046.23L1290.17,1042.64C1292.02,1042.05 1293.36,1041.54 1294.16,1041.1C1294.97,1040.66 1295.66,1040.05 1296.25,1039.27C1296.83,1038.49 1297.27,1037.29 1297.57,1035.68C1297.86,1034.07 1298.01,1031.55 1298.01,1028.13L1298.01,996.201C1298.01,993.076 1297.96,990.562 1297.86,988.657C1297.76,986.753 1297.42,985.227 1296.83,984.08C1296.25,982.932 1295.36,982.078 1294.16,981.516C1292.96,980.955 1291.27,980.479 1289.07,980.088L1289.07,976.279L1306.21,975.547L1310.68,975.547L1309.87,988.364Z" style="fill:rgb(103,103,103);fill-rule:nonzero;"/>
            <path d="M1371.91,988.364L1372.93,988.584C1375.62,985.313 1378.11,982.737 1380.4,980.857C1382.7,978.977 1385.18,977.525 1387.84,976.499C1390.5,975.474 1393.51,974.961 1396.88,974.961C1399.71,974.961 1402.28,975.108 1404.57,975.401L1404.57,992.246L1396.3,992.246C1395.12,989.61 1393.88,987.693 1392.56,986.497C1391.24,985.3 1389.44,984.702 1387.14,984.702C1385.38,984.702 1383.64,985.215 1381.9,986.24C1380.17,987.266 1378.5,988.755 1376.89,990.708C1375.28,992.661 1374.16,994.492 1373.56,996.201C1372.94,997.91 1372.64,999.937 1372.64,1002.28L1372.64,1027.91C1372.64,1032.36 1372.91,1035.42 1373.44,1037.11C1373.98,1038.79 1374.87,1040.03 1376.12,1040.81C1377.36,1041.59 1379.23,1042.2 1381.72,1042.64L1381.72,1046.23L1352.2,1046.23L1352.2,1042.64C1354.06,1042.05 1355.39,1041.54 1356.2,1041.1C1357,1040.66 1357.7,1040.05 1358.28,1039.27C1358.87,1038.49 1359.31,1037.29 1359.6,1035.68C1359.89,1034.07 1360.04,1031.55 1360.04,1028.13L1360.04,996.201C1360.04,993.076 1359.99,990.562 1359.89,988.657C1359.8,986.753 1359.46,985.227 1358.87,984.08C1358.28,982.932 1357.39,982.078 1356.2,981.516C1355,980.955 1353.3,980.479 1351.11,980.088L1351.11,976.279L1368.25,975.547L1372.71,975.547L1371.91,988.364Z" style="fill:rgb(103,103,103);fill-rule:nonzero;"/>
        </g>
    </g>
</svg>
